<?xml version="1.0" encoding="UTF-8" ?>
<svg version="1.1" width="1600" height="1600" xmlns="http://www.w3.org/2000/svg" shape-rendering="crispEdges">
<rect x="500" y="100" width="100" height="100" fill="#1E1E23" />
<rect x="600" y="100" width="100" height="100" fill="#1E1E23" />
<rect x="500" y="200" width="100" height="100" fill="#1E1E23" />
<rect x="600" y="200" width="100" height="100" fill="#1E1E23" />
<rect x="400" y="300" width="100" height="100" fill="#1E1E23" />
<rect x="500" y="300" width="100" height="100" fill="#1E1E23" />
<rect x="600" y="300" width="100" height="100" fill="#1E1E23" />
<rect x="700" y="300" width="100" height="100" fill="#1E1E23" />
<rect x="800" y="300" width="100" height="100" fill="#1E1E23" />
<rect x="900" y="300" width="100" height="100" fill="#1E1E23" />
<rect x="1000" y="300" width="100" height="100" fill="#1E1E23" />
<rect x="1100" y="300" width="100" height="100" fill="#1E1E23" />
<rect x="400" y="400" width="100" height="100" fill="#1E1E23" />
<rect x="500" y="400" width="100" height="100" fill="#324F5E" />
<rect x="600" y="400" width="100" height="100" fill="#324F5E" />
<rect x="700" y="400" width="100" height="100" fill="#324F5E" />
<rect x="800" y="400" width="100" height="100" fill="#324F5E" />
<rect x="900" y="400" width="100" height="100" fill="#324F5E" />
<rect x="1000" y="400" width="100" height="100" fill="#324F5E" />
<rect x="1100" y="400" width="100" height="100" fill="#1E1E23" />
<rect x="400" y="500" width="100" height="100" fill="#1E1E23" />
<rect x="500" y="500" width="100" height="100" fill="#324F5E" />
<rect x="600" y="500" width="100" height="100" fill="#87BA55" />
<rect x="700" y="500" width="100" height="100" fill="#87BA55" />
<rect x="800" y="500" width="100" height="100" fill="#5DAE5A" />
<rect x="900" y="500" width="100" height="100" fill="#5DAE5A" />
<rect x="1000" y="500" width="100" height="100" fill="#324F5E" />
<rect x="1100" y="500" width="100" height="100" fill="#1E1E23" />
<rect x="400" y="600" width="100" height="100" fill="#1E1E23" />
<rect x="500" y="600" width="100" height="100" fill="#324F5E" />
<rect x="600" y="600" width="100" height="100" fill="#87BA55" />
<rect x="700" y="600" width="100" height="100" fill="#5DAE5A" />
<rect x="800" y="600" width="100" height="100" fill="#5DAE5A" />
<rect x="900" y="600" width="100" height="100" fill="#5DAE5A" />
<rect x="1000" y="600" width="100" height="100" fill="#324F5E" />
<rect x="1100" y="600" width="100" height="100" fill="#1E1E23" />
<rect x="400" y="700" width="100" height="100" fill="#1E1E23" />
<rect x="500" y="700" width="100" height="100" fill="#324F5E" />
<rect x="600" y="700" width="100" height="100" fill="#87BA55" />
<rect x="700" y="700" width="100" height="100" fill="#87BA55" />
<rect x="800" y="700" width="100" height="100" fill="#87BA55" />
<rect x="900" y="700" width="100" height="100" fill="#5DAE5A" />
<rect x="1000" y="700" width="100" height="100" fill="#324F5E" />
<rect x="1100" y="700" width="100" height="100" fill="#1E1E23" />
<rect x="400" y="800" width="100" height="100" fill="#1E1E23" />
<rect x="500" y="800" width="100" height="100" fill="#324F5E" />
<rect x="600" y="800" width="100" height="100" fill="#87BA55" />
<rect x="700" y="800" width="100" height="100" fill="#87BA55" />
<rect x="800" y="800" width="100" height="100" fill="#87BA55" />
<rect x="900" y="800" width="100" height="100" fill="#87BA55" />
<rect x="1000" y="800" width="100" height="100" fill="#324F5E" />
<rect x="1100" y="800" width="100" height="100" fill="#1E1E23" />
<rect x="400" y="900" width="100" height="100" fill="#1E1E23" />
<rect x="500" y="900" width="100" height="100" fill="#324F5E" />
<rect x="600" y="900" width="100" height="100" fill="#87BA55" />
<rect x="700" y="900" width="100" height="100" fill="#87BA55" />
<rect x="800" y="900" width="100" height="100" fill="#828E4D" />
<rect x="900" y="900" width="100" height="100" fill="#828E4D" />
<rect x="1000" y="900" width="100" height="100" fill="#324F5E" />
<rect x="1100" y="900" width="100" height="100" fill="#1E1E23" />
<rect x="400" y="1000" width="100" height="100" fill="#1E1E23" />
<rect x="500" y="1000" width="100" height="100" fill="#324F5E" />
<rect x="600" y="1000" width="100" height="100" fill="#87BA55" />
<rect x="700" y="1000" width="100" height="100" fill="#828E4D" />
<rect x="800" y="1000" width="100" height="100" fill="#828E4D" />
<rect x="900" y="1000" width="100" height="100" fill="#828E4D" />
<rect x="1000" y="1000" width="100" height="100" fill="#324F5E" />
<rect x="1100" y="1000" width="100" height="100" fill="#1E1E23" />
<rect x="400" y="1100" width="100" height="100" fill="#1E1E23" />
<rect x="500" y="1100" width="100" height="100" fill="#324F5E" />
<rect x="600" y="1100" width="100" height="100" fill="#324F5E" />
<rect x="700" y="1100" width="100" height="100" fill="#324F5E" />
<rect x="800" y="1100" width="100" height="100" fill="#324F5E" />
<rect x="900" y="1100" width="100" height="100" fill="#324F5E" />
<rect x="1000" y="1100" width="100" height="100" fill="#324F5E" />
<rect x="1100" y="1100" width="100" height="100" fill="#1E1E23" />
<rect x="400" y="1200" width="100" height="100" fill="#1E1E23" />
<rect x="500" y="1200" width="100" height="100" fill="#324F5E" />
<rect x="600" y="1200" width="100" height="100" fill="#952525" />
<rect x="700" y="1200" width="100" height="100" fill="#324F5E" />
<rect x="800" y="1200" width="100" height="100" fill="#324F5E" />
<rect x="900" y="1200" width="100" height="100" fill="#259539" />
<rect x="1000" y="1200" width="100" height="100" fill="#324F5E" />
<rect x="1100" y="1200" width="100" height="100" fill="#1E1E23" />
<rect x="400" y="1300" width="100" height="100" fill="#1E1E23" />
<rect x="500" y="1300" width="100" height="100" fill="#324F5E" />
<rect x="600" y="1300" width="100" height="100" fill="#324F5E" />
<rect x="700" y="1300" width="100" height="100" fill="#324F5E" />
<rect x="800" y="1300" width="100" height="100" fill="#324F5E" />
<rect x="900" y="1300" width="100" height="100" fill="#324F5E" />
<rect x="1000" y="1300" width="100" height="100" fill="#324F5E" />
<rect x="1100" y="1300" width="100" height="100" fill="#1E1E23" />
<rect x="400" y="1400" width="100" height="100" fill="#1E1E23" />
<rect x="500" y="1400" width="100" height="100" fill="#1E1E23" />
<rect x="600" y="1400" width="100" height="100" fill="#1E1E23" />
<rect x="700" y="1400" width="100" height="100" fill="#1E1E23" />
<rect x="800" y="1400" width="100" height="100" fill="#1E1E23" />
<rect x="900" y="1400" width="100" height="100" fill="#1E1E23" />
<rect x="1000" y="1400" width="100" height="100" fill="#1E1E23" />
<rect x="1100" y="1400" width="100" height="100" fill="#1E1E23" />
</svg>